<!--badger-->
<svg xmlns="http://www.w3.org/2000/svg" width="500" height="250">
	<path style="fill:grey; stroke:none;" d="M151 104L147 104L148 100C133.974 100.04 138.847 105.161 137.567 115C136.706 121.623 133.789 127.029 134.042 134C134.167 137.415 137.168 146.909 132.682 148.694C128.721 150.272 118.918 142.631 115 141C115.872 149.472 122.364 156.185 127 163C117.261 166.348 100.219 166.292 90 165C93.5188 175.371 112.394 175.674 120.995 179.468C128.113 182.608 127.805 191.212 135.001 194.297C155.135 202.929 169.445 171.321 175 157C177.822 156.951 181.147 154.839 183.877 155.583C189.059 156.995 185.652 162.851 184.785 166.001C183.119 172.057 183.773 178.207 180.811 184C179.096 187.353 173.949 191.802 174.831 195.891C175.934 201.005 190.184 201.586 193.215 198.258C195.533 195.712 193.207 191.132 194.035 188C195.794 181.348 201.551 176.368 204 170L206 170C208.588 177.78 208.749 181.257 206 189C203.146 189.137 199.165 192.154 203.323 194.472C206.446 196.214 223.228 196.388 224.08 191.787C224.521 189.404 221.567 187.813 221.307 185.536C220.914 182.083 223.874 178.623 223.916 175C223.998 167.893 221.065 162.401 222 155C240.775 160.328 260.733 162.454 280 158.6C287.814 157.037 297.887 154.498 302 147L304 148L315 137C316.002 151.936 335.788 159.992 328.656 178C326.08 184.505 319.2 186.975 316 193C321.585 195.872 327.874 195.655 333.981 195.019C336.233 194.784 342.44 193.97 339 191L350 170C357.373 176.435 356.997 183.556 352 191C356.735 193.239 370.849 193.292 371.94 185.895C372.491 182.156 367.898 179.308 366.782 176C365.023 170.789 368.697 165.19 367.307 159.999C365.69 153.962 359.07 150.984 357.434 145C354.735 135.136 359.221 123.855 360 114L361 114L371 147C382.135 140.245 372.771 133.116 368.313 125C359.767 109.44 357.129 92.1317 341.576 81.5185C327.688 72.0417 299.746 64.3744 283 66.1736C268.488 67.7329 254.87 73.621 240 73.9853C216.457 74.5621 191.923 68.6239 169.019 77.7423C161.251 80.8347 152.789 96.1807 151 104z"/>
</svg>